<svg width="364" height="121" xmlns="http://www.w3.org/2000/svg">
 <!-- Created with Method Draw - http://github.com/duopixel/Method-Draw/ -->

 <g>
  <title>background</title>
  <rect fill="none" id="canvas_background" height="123" width="366" y="-1" x="-1"/>
  <g display="none" overflow="visible" y="0" x="0" height="100%" width="100%" id="canvasGrid">
   <rect fill="url(#gridpattern)" stroke-width="0" y="0" x="0" height="100%" width="100%"/>
  </g>
 </g>
 <g>
  <title>Layer 1</title>
  <defs>
   <style type="text/css"/>
  </defs>
  <defs>
   <style type="text/css"/>
  </defs>
  <defs>
   <style type="text/css"/>
  </defs>
  <g stroke="null" id="svg_53">
   <path stroke="null" id="svg_33" fill="#ffffff" d="m231.936993,71.049561c9.542768,-0.265077 12.988768,-6.892 12.988768,-12.723691l0,-34.99015l1.325384,0l1.325385,-5.301538l-28.363227,0l1.325384,5.301538l19.085537,0l0,34.459996c0,5.036461 -3.711076,8.217384 -9.012615,8.217384l1.325385,5.036461l0,0z"/>
   <path stroke="null" id="svg_34" fill="#ffffff" d="m232.997301,59.121101c1.325384,-1.325385 1.855538,-3.180923 1.855538,-6.096769l0,-24.917228l-15.374459,0l0,32.869535l8.48246,0c2.120615,0 3.976154,-0.530154 5.036461,-1.855538zm-8.217384,-3.711076l0,-22.001382l4.771384,0l0,19.085536c0,2.120615 -0.79523,2.915846 -2.650769,2.915846l-2.120615,0z"/>
   <path stroke="null" id="svg_35" fill="#ffffff" d="m198.007151,17.769106l0,53.280455l5.301538,0l0,-2.385692l0,-28.628305l0,-16.699844l6.361845,0l-3.976153,16.699844l0,0l0,0c1.590461,1.325385 4.506307,4.771384 4.506307,10.603076c0,5.831691 -3.445999,7.952307 -4.506307,8.48246l0,5.566614c2.915845,-0.265076 10.072922,-4.24123 10.072922,-13.783998c0,-5.831691 -2.120615,-9.807845 -3.976154,-12.458614l4.771385,-20.675997l-18.555383,0z"/>
   <path stroke="null" id="svg_36" fill="#ffffff" d="m257.649452,65.748022l-1.060308,5.301539l47.183686,0l-1.325384,-5.301539l-19.61569,0l0,-6.626922l18.025229,0l-1.325385,-5.301538l-16.964921,0l0,-6.626923l12.193537,0c5.831691,0 8.747538,-2.915846 8.747538,-8.747538l0,-20.675997l-46.91861,0l0,29.423535l20.675997,0l0,6.361845l-16.964921,0l-1.325384,5.301538l18.025228,0l0,6.891999l-19.350613,0zm25.182305,-30.483842l12.458614,0l-1.325385,-5.301538l-11.133229,0l0,-6.626923l15.374459,0l0,14.844307c0,2.650769 -1.060308,3.711076 -3.180923,3.711076l-12.193537,0l0,-6.626923zm-20.675997,6.626923l0,-18.555383l15.374459,0l0,6.626923l-11.133229,0l-1.325385,5.301538l12.458614,0l0,6.626923l-15.374459,0z"/>
   <path stroke="null" id="svg_37" fill="#ffffff" d="m354.932671,17.769106l-37.110765,0l-1.325385,5.566614l39.761534,0l-1.325384,-5.566614z"/>
   <path stroke="null" id="svg_38" fill="#ffffff" d="m315.701291,70.519406l-0.265077,0.530154l36.315535,0c2.120615,0 3.711076,-0.530154 4.771384,-1.855538c1.060308,-1.590461 0.79523,-3.446 0.265076,-4.506308l0,0c-0.530154,-2.650769 -2.650769,-11.928459 -3.180923,-13.253844l0,-0.265076l-5.566614,0l0.265076,0.530154c0.265077,1.325384 2.650769,10.868152 3.180923,14.049074l-29.158457,0c1.325384,-6.096768 3.711076,-16.699843 5.03646,-21.736305l32.604457,0l-1.325384,-5.301538l-44.532918,0l-1.325385,5.301538l9.012615,0c-1.060308,4.771384 -4.24123,18.025228 -6.096769,26.507688z"/>
   <path stroke="null" id="svg_39" fill="#ffffff" d="m213.646688,102.328633c-0.530154,0 -0.795231,0 -0.795231,-0.265076c0,-0.265077 -0.265076,-0.530154 -0.265076,-0.795231l0,-10.603075c0,-1.590461 -0.530154,-2.915846 -1.855539,-3.711076c-1.325384,-0.795231 -3.180923,-1.325385 -5.301538,-1.325385c-1.855538,0 -3.445999,0.530154 -4.771384,1.325385c-1.325384,0.79523 -2.120615,2.385692 -2.120615,4.771384l2.915846,0c0,-1.060308 0.265076,-1.590461 0.79523,-2.120615c0.795231,-0.795231 1.855539,-1.325385 3.446,-1.325385c1.325384,0 2.385691,0.265077 3.180923,0.795231c0.79523,0.530154 1.060308,1.325384 1.060308,2.385691c0,0.530154 0,0.795231 -0.265077,1.060308c-0.265076,0.530154 -0.79523,0.795231 -1.325384,0.795231l-4.771384,0.530154c-1.590461,0.265076 -3.180923,0.79523 -4.24123,1.590461c-1.060308,0.79523 -1.590461,2.120615 -1.590461,3.976154c0,1.590461 0.530154,2.915845 1.590461,3.711076c1.060308,1.060308 2.385691,1.590461 4.24123,1.590461c1.325384,0 2.650769,-0.265077 3.976153,-0.795231c1.060308,-0.530154 2.120616,-1.325384 2.65077,-2.120615c0,0.795231 0.265076,1.325385 0.530154,1.590461c0.530154,0.795231 1.325384,1.060308 2.385691,1.060308c0.530154,0 0.795231,0 1.060308,0c0.265077,0 0.530154,0 1.060308,-0.265076l0,-2.385692c-0.265076,0 -0.265076,0 -0.530154,0c-0.795231,0.530154 -0.795231,0.530154 -1.060308,0.530154zm-3.976154,-4.771384c0,1.855539 -0.79523,3.180923 -2.650769,3.976154c-1.060308,0.530154 -2.120615,0.79523 -3.180923,0.79523c-0.79523,0 -1.590461,-0.265076 -2.385691,-0.79523c-0.530154,-0.530154 -1.060308,-1.325385 -1.060308,-2.120615c0,-1.060308 0.530154,-2.120615 1.325384,-2.650769c0.530154,-0.265077 1.325385,-0.530154 2.385692,-0.795231l1.855538,-0.265076c0.530154,0 1.060308,-0.265077 1.855539,-0.265077c0.530154,-0.265076 1.060308,-0.265076 1.325384,-0.530154l0,2.650769l0.530154,0z"/>
   <path stroke="null" id="svg_40" fill="#ffffff" d="m217.887918,79.266944l3.180923,0l0,24.917228l-3.180923,0l0,-24.917228z"/>
   <path stroke="null" id="svg_41" fill="#ffffff" d="m225.310071,86.158943l3.180923,0l0,18.025229l-3.180923,0l0,-18.025229z"/>
   <path stroke="null" id="svg_42" fill="#ffffff" d="m225.310071,79.266944l3.180923,0l0,3.446l-3.180923,0l0,-3.446z"/>
   <path stroke="null" id="svg_43" fill="#ffffff" d="m239.624224,101.003249l-4.771384,-14.844307l-3.446,0l6.626923,18.820459c-0.265077,0.265077 -0.530154,1.060308 -0.795231,1.855539c-0.265076,0.79523 -0.530154,1.325384 -0.530154,1.325384c-0.265076,0.265077 -0.530154,0.530154 -0.79523,0.795231c-0.265077,0.265076 -0.795231,0.265076 -1.325385,0.265076c-0.265076,0 -0.265076,0 -0.530154,0c-0.265076,0 -0.530154,0 -1.060308,-0.265076l0,2.915845c0.265077,0 0.530154,0.265077 0.795231,0.265077c0.265076,0 0.530154,0 1.060308,0c1.855538,0 2.915845,-0.530154 3.711076,-1.590461c0.79523,-1.060308 1.855538,-3.711076 3.711076,-8.48246c0.79523,-1.855539 1.590461,-4.506308 2.650769,-7.68723c1.590461,-4.24123 2.385692,-6.891999 2.915845,-7.952307l-3.445999,0l-4.771384,14.579229z"/>
   <path stroke="null" id="svg_44" fill="#ffffff" d="m261.890682,94.90648c0,1.855539 -0.265076,3.180923 -0.530154,4.24123c-0.79523,1.855539 -2.120615,2.915846 -4.24123,2.915846c-1.325384,0 -2.385692,-0.530154 -2.915846,-1.590461c-0.265076,-0.530154 -0.530154,-1.325385 -0.530154,-2.385692l0,-12.193537l-3.180923,0l0,12.458614c0,1.590461 0.265077,2.915845 0.795231,3.711076c0.79523,1.855538 2.650769,2.650769 5.301538,2.650769c1.590461,0 2.915845,-0.530154 4.24123,-1.325385c0.530154,-0.530154 1.060308,-1.060308 1.325384,-1.855538l0,2.650769l2.915846,0l0,-18.290306l-3.180923,0l0,9.012614z"/>
   <path stroke="null" id="svg_45" fill="#ffffff" d="m278.590526,85.628789c-1.060308,0 -2.120615,0.265077 -3.180923,0.795231c-1.060308,0.530154 -1.855539,1.325384 -2.650769,2.385691l0,-2.650769l-2.915846,0l0,18.290306l3.180923,0l0,-9.542768c0,-1.060308 0,-2.120615 0.265077,-2.650769c0.265076,-0.530154 0.530154,-1.325385 1.060308,-1.855539c0.530154,-0.79523 1.325384,-1.325384 2.120615,-1.590461c0.530154,-0.265076 1.060308,-0.265076 1.855539,-0.265076c1.325384,0 2.385691,0.530154 2.915845,1.590461c0.265077,0.79523 0.530154,1.590461 0.530154,2.650769l0,11.398307l3.180923,0l0,-11.663383c0,-1.855539 -0.265076,-3.180924 -0.79523,-4.241231c-1.060308,-1.590461 -2.915846,-2.650769 -5.566615,-2.650769z"/>
   <path stroke="null" id="svg_46" fill="#ffffff" d="m289.988833,100.473096l3.445999,0l0,3.711076l-3.445999,0l0,-3.711076z"/>
   <path stroke="null" id="svg_47" fill="#ffffff" d="m305.893446,88.279558c1.325385,0 2.385692,0.265077 3.180923,1.060308c0.530154,0.795231 1.060308,1.590461 1.325385,2.915846l2.915845,0c-0.265076,-2.385692 -1.060308,-4.24123 -2.385691,-5.036461c-1.325385,-1.060308 -2.915846,-1.590461 -5.036461,-1.590461c-2.385691,0 -4.506307,0.795231 -5.831691,2.650769c-1.590461,1.855539 -2.385692,4.241231 -2.385692,7.422154c0,2.650769 0.795231,4.771384 2.120616,6.626922c1.325384,1.855539 3.180923,2.650769 5.566614,2.650769c2.120615,0 3.976154,-0.530154 5.301538,-1.590461c1.325385,-1.060308 2.120615,-2.915845 2.650769,-5.301538l-2.915845,0c-0.265077,1.325385 -0.795231,2.385692 -1.590461,3.180923c-0.795231,0.795231 -1.855539,1.060308 -2.915846,1.060308c-1.590461,0 -2.915845,-0.530153 -3.711076,-1.855538c-0.79523,-1.325385 -1.060308,-2.650769 -1.060308,-4.506308c0,-1.855538 0.265077,-3.445999 0.795231,-4.506307c0.530154,-2.120615 1.855538,-3.180924 3.976153,-3.180924z"/>
   <path stroke="null" id="svg_48" fill="#ffffff" d="m323.388521,85.628789c-2.650769,0 -4.771384,0.795231 -6.096769,2.650769c-1.590461,1.855539 -2.385692,4.241231 -2.385692,7.422154c0,2.915845 0.795231,5.03646 2.120615,6.891999c1.590462,1.590461 3.446,2.650769 5.831692,2.650769c2.915845,0 5.301538,-1.060308 6.626922,-2.915846c1.325385,-1.855538 2.120615,-4.24123 2.120615,-7.157075c0,-2.915846 -0.79523,-5.301538 -2.385691,-6.892c-1.325385,-1.855538 -3.446,-2.650769 -5.831691,-2.650769zm3.976153,14.314153c-0.79523,1.590461 -2.120615,2.385691 -4.24123,2.385691c-1.855538,0 -3.180923,-0.530154 -3.976153,-1.855538c-0.795231,-1.325385 -1.325385,-2.915846 -1.325385,-4.771384c0,-2.120615 0.530154,-3.711076 1.325385,-5.036461c0.79523,-1.325384 2.120615,-2.120615 3.976153,-2.120615c2.120615,0 3.446,0.79523 4.506308,2.385692c0.530154,1.060308 0.79523,2.385691 0.79523,4.24123c0.265077,1.590461 -0.265076,3.180923 -1.060308,4.771384z"/>
   <path stroke="null" id="svg_49" fill="#ffffff" d="m359.173901,88.279558c-0.79523,-1.855538 -2.650769,-2.650769 -5.036461,-2.650769c-1.060308,0 -2.120615,0.265077 -3.180923,0.795231c-0.79523,0.530154 -1.590461,1.325384 -2.385691,2.120615c-0.530154,-0.795231 -0.795231,-1.325385 -1.325385,-1.855539c-0.79523,-0.79523 -2.120615,-1.060308 -3.445999,-1.060308c-1.325385,0 -2.385692,0.265077 -3.446,1.060308c-0.530154,0.530154 -1.325384,1.060308 -1.855539,1.855539l0,-2.650769l-2.915845,0l0,18.290306l3.180923,0l0,-9.542769c0,-2.385691 0.530154,-3.976153 1.325385,-4.771384c1.060307,-0.79523 2.120615,-1.325384 3.180923,-1.325384c1.325384,0 2.120615,0.530154 2.650769,1.325384c0.265076,0.530154 0.530154,1.590461 0.530154,2.650769l0,11.92846l3.180923,0l0,-10.603075c0,-1.855538 0.530154,-3.180923 1.325384,-3.976154c0.795231,-0.79523 1.855539,-1.325384 3.180923,-1.325384c0.795231,0 1.590461,0.265076 2.120616,0.79523c0.530154,0.530154 0.79523,1.325385 0.79523,2.385692l0,12.72369l3.180923,0l0,-12.193537c-0.265077,-1.590461 -0.530154,-2.915845 -1.060308,-3.976154z"/>
   <path stroke="null" id="svg_50" fill="#ffffff" d="m34.984864,87.484328c-3.446,-0.795231 -6.096769,-3.711076 -6.096769,-7.422153c0,0 0,-40.556765 0,-40.821841c0.265077,-3.711076 2.650769,-6.626923 6.096769,-7.422154l37.905995,-8.217383l3.976154,-16.16969l-44.002764,0c-15.639537,0 -28.098151,12.458614 -28.098151,27.833073l0,48.243994c0,15.37446 12.72369,28.098151 28.098151,28.098151l44.002764,0l-3.976154,-16.16969l-37.905995,-7.952307z"/>
   <path stroke="null" id="svg_51" fill="#ffffff" d="m145.25685,7.431107l-44.26784,0l3.976153,16.16969l37.905996,8.217384c3.445999,0.79523 6.096768,3.711076 6.096768,7.422153c0,0 0,40.556764 0,40.821841c-0.265076,3.711076 -2.650769,6.626922 -6.096768,7.422153l-37.905996,8.217384l-3.976153,16.16969l44.26784,0c15.37446,0 28.098151,-12.458614 28.098151,-28.098151l0,-48.509071c-0.265077,-15.374459 -12.72369,-27.833073 -28.098151,-27.833073z"/>
   <path stroke="null" id="svg_52" fill="#ffffff" d="m72.890859,57.530639l32.339381,0l0,3.976153l-32.339381,0l0,-3.976153z"/>
  </g>
 </g>
</svg>