<svg width="364" height="135" xmlns="http://www.w3.org/2000/svg">
 <!-- Created with Method Draw - http://github.com/duopixel/Method-Draw/ -->
 <g>
  <title>background</title>
  <rect x="-1" y="-1" width="366" height="137" id="canvas_background" fill="none"/>
  <g id="canvasGrid" display="none">
   <rect id="svg_1" width="100%" height="100%" x="0" y="0" stroke-width="0" fill="url(#gridpattern)"/>
  </g>
 </g>
 <g>
  <title>Layer 1</title>
  <defs>
   <style type="text/css"/>
  </defs>
  <defs>
   <style type="text/css"/>
  </defs>
  <defs>
   <style type="text/css"/>
  </defs>
  <defs>
   <style type="text/css"/>
  </defs>
  <g stroke="null" id="svg_6">
   <path stroke="null" id="svg_5" fill="#ffffff" d="m105.444159,18.751951c-1.933268,-1.933269 -4.418899,-3.314175 -6.90453,-4.418899c-1.933269,-1.104726 -4.142718,-0.552363 -5.247444,1.104725l-14.913785,19.885048l-1.104726,1.380906c-1.657087,2.209449 -4.142718,3.314174 -6.90453,3.314174l-2.761812,0c-7.733074,0.276181 -15.189967,4.142719 -19.885048,10.494886c-3.866537,4.971262 -5.523624,11.323431 -5.523624,17.399418c0,1.104725 0.828543,2.209449 1.933269,2.485631c2.209449,1.104725 3.590355,3.037993 3.866537,5.523624c0.828543,3.590356 -1.657087,7.180711 -5.247444,8.009256c-3.866537,1.104725 -7.733073,-1.104726 -8.837799,-4.695081l0,-0.276181c-0.552362,-2.209449 0,-4.142718 1.380907,-5.799805c0.828543,-0.828543 1.104725,-2.209449 1.104725,-3.314175c-0.552363,-8.009255 1.657087,-16.294692 6.628349,-22.646859c6.075987,-8.009256 15.466149,-12.980518 25.684854,-12.980518c1.933269,0 3.590356,-1.104725 4.695081,-2.485631l13.80906,-18.227961c0.828544,-1.104725 0.552363,-2.761812 -0.552362,-3.590355c-0.276181,-0.276181 -0.552363,-0.276181 -0.828544,-0.552363c-23.199222,-6.90453 -48.884076,1.380906 -63.797861,21.265954c-20.161228,26.237215 -15.189966,63.797861 11.047249,83.95909c2.485631,1.657087 5.247444,3.590356 7.733074,5.247443c1.657087,0.828544 3.866537,0.552363 5.247443,-1.104725l14.913786,-20.161228l1.104725,-1.380906c1.657087,-2.20945 4.142719,-3.314175 6.904531,-3.314175l3.037993,0c7.733073,-0.276181 15.189966,-4.142718 19.608866,-10.494886c3.866538,-4.971261 5.799807,-11.323429 5.523625,-17.399416c0,-1.104725 -0.828544,-2.20945 -1.657087,-2.485631c-2.20945,-1.104726 -3.866538,-3.037993 -3.866538,-5.523625c-0.828543,-3.590355 1.380907,-7.180711 5.247444,-8.009255c3.866537,-1.104726 7.733074,1.104725 8.837799,4.695081c0.276181,2.209449 0,4.142718 -1.657087,5.799805c-0.828543,0.828543 -1.104725,2.209449 -1.104725,3.314174c0.828543,8.009256 -1.657087,16.018512 -6.352168,22.64686c-6.075987,8.009256 -15.466149,12.980517 -25.684854,12.980517c-1.933268,0 -3.590355,1.104726 -4.69508,2.485632l-13.809061,18.22796c-0.828543,1.104726 -0.552363,2.761812 0.552363,3.590356c0.27618,0.276181 0.552362,0.276181 0.828543,0.552362c24.027766,7.180713 49.712619,-1.380906 64.626405,-21.542134c18.504142,-26.513397 13.256698,-63.797861 -12.980517,-83.95909zm98.872876,16.294692l0,-1.380906c0,-0.828544 -0.552362,-1.657087 -1.657087,-1.933269l-47.226988,0c-0.828543,0 -1.657087,0.552363 -1.933268,1.657087l0,3.037993c0,0.828543 0.552362,1.657087 1.657087,1.933269l39.770095,0c0.828543,0 1.657087,0.552362 1.933268,1.657086l0,0.552363c-2.209449,12.704336 -7.456893,24.580128 -15.742329,34.522653c-0.276181,0.828543 -1.380906,0.828543 -2.209449,0l-0.276181,-0.276181c-6.352168,-8.285437 -10.771068,-17.675598 -12.980517,-27.894303c0,-1.104726 -1.104726,-1.380906 -2.20945,-1.380906l-2.761812,0c-1.104725,0 -1.933269,1.104725 -1.657087,2.209449c2.485631,11.599611 7.456893,22.64686 14.913786,32.037022c0.828543,0.828543 0.828543,1.933268 0,2.485631c-8.009256,7.733074 -17.951779,13.256698 -28.999029,15.189967c-1.104725,0 -1.380906,1.104725 -1.380906,1.933268l0,2.761812c0,1.104726 1.104726,1.933269 2.20945,1.933269c12.428154,-2.209449 24.027766,-8.009255 33.141747,-17.123235c0.552362,-0.828544 1.657086,-0.828544 2.485631,0c8.009255,7.733073 17.675598,13.53288 28.170484,16.847054c0.828543,0.276181 1.657087,0 2.209449,-0.828543l0,-0.276181l0.828544,-2.761812c0.276181,-0.828543 -0.276181,-1.933269 -1.104725,-2.20945c-9.666343,-3.037992 -18.504142,-8.285436 -25.684854,-15.189966c-0.828543,-0.828544 -0.828543,-1.933269 0,-2.485632c10.771068,-12.980517 17.399416,-28.446664 18.504141,-45.017538zm32.037022,-6.352168l-2.761812,0c-0.828544,0 -1.657087,0.552363 -1.933269,1.657087l0,10.218705c0,0.828543 -0.552363,1.657087 -1.657087,1.933269l-6.90453,0c-0.828544,0 -1.657087,0.552362 -1.657087,1.657087l0,3.314174c0,1.104726 0.552362,1.657087 1.657087,1.933269l6.628349,0c0.828544,0 1.657087,0.552363 1.657087,1.657087l0,14.361423c0,0.828544 -0.552363,1.657087 -1.657087,1.933269l-6.90453,0c-0.828544,0 -1.657087,0.552363 -1.657087,1.657087l0,3.590355c0,1.104726 0.552363,1.657087 1.657087,1.933269l6.628349,0c0.828544,0 1.657087,0.552363 1.657087,1.657087l0,14.085242c0,3.037993 -1.104725,8.009256 -8.837799,8.285437c-0.828543,0 -1.657087,0.552362 -1.657087,1.657087l0,3.037993c0,1.104725 1.104726,1.933268 2.20945,1.933268c7.456893,-0.828543 15.189967,-4.69508 15.189967,-14.913786l0,-13.80906c0,-0.828544 0.552362,-1.657087 1.657086,-1.657087l6.075987,0c1.104726,0 1.657087,-0.828544 1.657087,-1.657087l0,-3.037993c0,-0.828543 -0.552362,-1.657087 -1.657087,-1.657087l-5.523624,0c-0.828543,0 -1.657087,-0.552362 -1.657087,-1.657087l0,-14.913786c0,-0.828543 0.552363,-1.657086 1.657087,-1.657086l6.075987,0c0.828543,0 1.657087,-0.552363 1.657087,-1.657087l0,-3.037993c0,-0.828544 -0.552363,-1.657087 -1.657087,-1.933269l-6.075987,0c-0.828543,0 -1.657087,-0.552363 -1.657087,-1.657087l0,-10.218705c-0.276181,-2.209449 -1.104725,-3.037993 -2.209449,-3.037993zm15.189966,73.464203c0,0.828544 0.552363,1.657087 1.657087,1.933269l21.265954,0c9.11398,0.276181 16.570873,-6.90453 16.847055,-16.01851l0,-44.188995c0,-0.828544 -0.552363,-1.657087 -1.657087,-1.657087l-36.17974,0c-0.828543,0 -1.657087,0.552363 -1.657087,1.657087l0,0.276181l-0.276181,57.998055zm22.64686,-4.69508l-14.637604,0c-1.104725,0 -1.657087,-0.552363 -1.933269,-1.657087l0,-20.16123c0,-1.104725 0.828544,-1.657087 1.657087,-1.657087l23.199223,0c0.828543,0 1.657086,0.552363 1.933268,1.657087l0,12.704337c0,5.247443 -4.69508,9.390161 -10.218705,9.11398c0.276181,0 0,0 0,0zm10.218705,-47.226989l0,15.466149c0,0.828543 -0.552362,1.657087 -1.657087,1.933269l-23.199222,0c-1.104725,0 -1.657087,-0.552363 -1.933269,-1.657087l0,-15.466149c0,-1.104725 0.552363,-1.657086 1.657087,-1.933268l23.199223,0c1.104725,-0.276181 1.933268,0.552362 1.933268,1.657087c0,-0.276181 0,0 0,0l0,-0.000001zm-4.418899,-21.542134l-18.504141,0c-0.828544,0 -1.657087,0.552363 -1.657087,1.657087l0,3.314175c0,0.828543 0.552362,1.657087 1.657087,1.657087l18.780322,0c0.828543,0 1.657087,-0.828544 1.657087,-1.657087l0,-3.037993c0,-0.828544 -0.828543,-1.657087 -1.933269,-1.933269c0.276181,0 0,0 0,0zm70.978573,3.037993l-38.389189,0c-0.828543,0 -1.657087,0.552363 -1.933268,1.380906l0,3.314175c0,0.828543 0.552362,1.657087 1.657086,1.933269l38.665371,0c0.828544,0 1.657087,-0.552363 1.657087,-1.657087l0,-3.037993c0.276181,-0.828544 -0.276181,-1.657087 -1.104725,-1.933269l-0.552363,0zm-16.294692,33.141747l26.789578,0c0.828544,0 1.657087,-0.552363 1.657087,-1.657087l0,-3.037993c0,-0.828544 -0.552363,-1.657087 -1.657087,-1.657087l-59.655143,0c-0.828543,0 -1.657086,0.552363 -1.657086,1.657087l0,3.037993c0,0.828543 0.552362,1.657087 1.657086,1.657087l18.780324,0c1.104725,0 1.933269,0.828543 1.933268,1.657086c0,0.552363 0,0.828544 -0.552362,1.380907l-12.428155,22.094497c-0.276181,0.276181 -0.552362,0.828543 -0.828543,1.380906c-1.104725,3.037993 -0.552363,6.352167 1.380906,8.837799c1.933269,3.037993 5.247443,4.695081 8.837799,4.418899l33.417927,0c1.380906,0 3.037993,-0.828544 3.590356,-2.20945c0.552363,-1.380906 0.828543,-2.761812 0.276181,-3.866537l-7.733074,-15.74233c-0.276181,-0.828543 -1.104725,-1.380906 -1.933269,-1.104725c-0.276181,0 -0.552362,0.276181 -0.552362,0.276181l-2.485632,1.380906c-0.828543,0.276181 -1.380906,1.104725 -1.104725,1.933269c0,0.276181 0.276181,0.552362 0.276181,0.828543l4.695081,8.837799c0.828543,1.104726 -0.276181,2.485632 -1.933269,2.485632l-26.789578,0c-1.380906,0 -2.485631,-0.552363 -3.314175,-1.380906c-0.552362,-0.828544 -0.552362,-1.657087 -0.27618,-2.485632c0,-0.276181 0,-0.276181 0.27618,-0.276181l14.913786,-25.961034c1.104726,-1.657087 2.761812,-2.485631 4.418899,-2.485631z"/>
  </g>
 </g>
</svg>